<?xml version="1.0" encoding="UTF-8" standalone="no"?>
<svg
   xmlns:dc="http://purl.org/dc/elements/1.1/"
   xmlns:cc="http://creativecommons.org/ns#"
   xmlns:rdf="http://www.w3.org/1999/02/22-rdf-syntax-ns#"
   xmlns:svg="http://www.w3.org/2000/svg"
   xmlns="http://www.w3.org/2000/svg"
   height="300.18399"
   width="182.853"
   x="0px"
   y="0px"
   version="1.1"
   viewBox="0 0 182.853 300.184"
   xml:space="preserve"
   enable-background="new 0 0 169.853 300.184"
   id="Layer_1"><defs
   id="defs3987" />
<path
   style="clip-rule:evenodd;fill-rule:evenodd"
   id="path3870"
   d="m 83.154,277.2545 c -1.27,1.939 1.463,6.007 4.588,6.423 -1.157,-2.516 -2.075,-5.266 -4.588,-6.423 z" />
<path
   style="clip-rule:evenodd;fill-rule:evenodd"
   id="path3872"
   d="m 87.742,281.8425 c 2.363,2.255 4.409,-0.982 5.503,-2.753 0.799,4.058 2.147,1.016 3.67,0.918 1.195,-0.077 0.362,1.721 0.918,1.835 2.699,0.557 7.837,-0.764 10.092,0 1.259,-4.622 -6.175,-0.553 -4.589,-5.505 -6.328,1.129 -7.694,-2.703 -13.762,-1.835 0.235,2.417 1.89,3.011 -1.833,2.751 -0.003,1.53 0.001,3.061 0.001,4.589 z" />
<path
   style="clip-rule:evenodd;fill-rule:evenodd"
   id="path3874"
   d="m 52.873,265.3275 c 2.957,-2.722 -2.769,-4.521 -2.752,-7.342 -2.4,2.166 2.513,4.775 2.752,7.342 z" />
<path
   style="clip-rule:evenodd;fill-rule:evenodd"
   id="path3876"
   d="m 46.451,253.3995 c 2.057,-1.529 -1.684,-4.984 -1.835,-7.34 -2.027,1.496 1.28,5.385 1.835,7.34 z" />
<path
   style="clip-rule:evenodd;fill-rule:evenodd"
   id="path3878"
   d="m 57.461,245.1405 c 1.066,0.149 1.633,-0.202 1.835,-0.918 -1.672,-13.071 -5.283,-28.142 -7.34,-41.289 -0.528,-3.368 2.397,-9.521 -2.753,-11.01 1.898,18.59 4.48,36.5 8.258,53.215 z" />
<path
   style="clip-rule:evenodd;fill-rule:evenodd"
   id="path3880"
   d="m 140.04,238.7165 c 1.631,-0.672 0.131,-1.667 0,-2.752 -1.63,0.673 -0.13,1.667 0,2.752 z" />
<path
   style="clip-rule:evenodd;fill-rule:evenodd"
   id="path3882"
   d="m 39.109,233.2115 c 3.42,-5.205 -4.906,-9.612 -1.835,-14.68 -5.352,3.834 1.596,10.407 1.835,14.68 z" />
<path
   style="clip-rule:evenodd;fill-rule:evenodd"
   id="path3884"
   d="m 55.626,200.1755 c 1.482,0.258 1.579,-0.868 2.751,-0.918 -0.723,-9.108 -1.85,-27.774 -0.917,-38.538 -5.576,3.151 -2.072,10.954 -1.835,16.518 0.263,6.201 -0.196,13.354 0,20.185 10e-4,0.93 10e-4,1.85 10e-4,2.76 z" />
<path
   style="clip-rule:evenodd;fill-rule:evenodd"
   id="path3886"
   d="m 50.121,189.1655 c 2.759,-0.04 2.664,-6.513 -0.918,-5.505 1.314,2.75 -0.749,3.13 0.918,5.51 z" />
<path
   style="clip-rule:evenodd;fill-rule:evenodd"
   id="path3888"
   d="m 37.274,183.6655 c 4.688,-1.59 -0.646,-7.5 0.918,-11.929 -2.712,1.34 -2.34,9.37 -0.918,11.93 z" />
<path
   style="clip-rule:evenodd;fill-rule:evenodd"
   id="path3890"
   d="m 49.203,181.8255 c 1.068,0.149 1.633,-0.202 1.835,-0.917 0.089,-13.409 -2.117,-21.687 1.835,-33.034 -2.963,0.821 -1.288,-2.991 -2.752,-3.667 -3.222,3.024 -1.835,10.688 -1.835,16.514 0,7.8 -0.623,15.29 0.917,21.11 z" />
<path
   style="clip-rule:evenodd;fill-rule:evenodd"
   id="path3892"
   d="m 138.2,171.7355 c 1.497,0.161 1.852,-6.001 -0.915,-4.586 -0.28,2.13 0.16,3.53 0.92,4.59 z" />
<path
   style="clip-rule:evenodd;fill-rule:evenodd"
   id="path3894"
   d="m 62.048,170.8155 c 4.042,-6.121 -0.465,-12.492 2.754,-17.434 -2.414,0.272 -0.723,-3.561 -3.67,-2.752 -1.789,5.89 0.53,12.14 0.916,20.18 z" />
<path
   style="clip-rule:evenodd;fill-rule:evenodd"
   id="path3896"
   d="m 36.357,168.9855 c 2.836,-1.639 2.572,-5.164 2.752,-7.34 0.177,-2.15 -1.229,-5.479 -0.917,-8.258 -3.055,4.9 -2.331,9.83 -1.835,15.6 z" />
<path
   style="clip-rule:evenodd;fill-rule:evenodd"
   id="path3898"
   d="m 138.2,165.3155 c 2.472,-4.951 0.646,-19.754 0,-27.527 -2.59,4.45 -2.68,20.53 0,27.53 z" />
<path
   style="clip-rule:evenodd;fill-rule:evenodd"
   id="path3900"
   d="m 56.543,157.0555 c 1.068,0.149 1.633,-0.202 1.835,-0.918 -0.915,-7.31 2.694,-17.215 0.918,-24.772 -3.263,5.71 -4.009,18.49 -2.753,25.69 z" />
<path
   style="clip-rule:evenodd;fill-rule:evenodd"
   id="path3902"
   d="m 131.78,153.3855 c 3.121,-3.353 2.277,-17.182 -1.837,-19.269 0.02,7.03 0.54,13.54 1.84,19.27 z" />
<path
   style="clip-rule:evenodd;fill-rule:evenodd"
   id="path3904"
   d="m 147.38,147.8755 c 1.266,-0.448 2.226,-8.271 -0.918,-7.341 1.42,1.34 0.81,4.7 0.92,7.34 z" />
<path
   style="clip-rule:evenodd;fill-rule:evenodd"
   id="path3906"
   d="m 63.885,143.2955 h 2.752 c -1.643,-4.929 3.461,-11.716 -1.835,-11.929 0.214,4.49 -1.617,6.95 -0.917,11.93 z" />
<path
   style="clip-rule:evenodd;fill-rule:evenodd"
   id="path3908"
   d="m 49.203,142.3755 c 2.571,-2.016 4.238,-8.796 3.67,-11.01 -2.655,1.93 -5.05,7.98 -3.67,11.01 z" />

<path
   style="clip-rule:evenodd;fill-rule:evenodd"
   id="path3912"
   d="m 70.307,136.8755 c 3.315,0.866 1.281,-3.614 1.835,-5.507 -3.471,-0.79 -3.246,4.11 -1.835,5.51 z" />
<path
   style="clip-rule:evenodd;fill-rule:evenodd"
   id="path3914"
   d="m 141.88,122.1855 v -3.67 c -3.54,-0.72 -3.54,4.4 0,3.67 z" />
<path
   style="clip-rule:evenodd;fill-rule:evenodd"
   id="path3916"
   d="m 53.791,119.4355 c 2.489,-0.377 3.786,-4.364 1.835,-6.422 -0.997,1.86 -3.349,4.8 -1.835,6.42 z" />
<path
   style="clip-rule:evenodd;fill-rule:evenodd"
   id="path3918"
   d="m 119.85,118.5155 c -0.104,-2.341 -0.172,-4.719 -2.752,-4.584 -0.18,2.62 -0.11,5 2.75,4.58 z" />
<path
   style="clip-rule:evenodd;fill-rule:evenodd"
   id="path3920"
   d="m 61.131,117.5955 c 1.803,-0.414 1.648,-6.437 -1.835,-4.585 -0.787,2.92 1.445,2.84 1.835,4.58 z" />
<path
   style="clip-rule:evenodd;fill-rule:evenodd"
   id="path3922"
   d="m 110.681,117.5955 h 3.671 c 0.586,-4.869 -2.815,-5.75 -5.507,-7.34 -1.122,4.18 2.517,3.6 1.838,7.34 z" />
<path
   style="clip-rule:evenodd;fill-rule:evenodd"
   id="path3924"
   d="m 83.154,109.3355 c -3.954,-1.194 -2.901,2.606 -4.588,3.674 -1.245,-0.284 -0.762,-2.3 -0.919,-3.674 -3.115,-0.056 -5.04,1.079 -6.421,2.755 2.247,7.24 15.012,4.35 11.928,-2.76 z" />
<path
   style="clip-rule:evenodd;fill-rule:evenodd"
   id="path3926"
   d="m 64.802,115.7655 h 2.753 c 0.257,-1.482 -0.868,-1.579 -0.918,-2.752 h -1.835 v 2.75 z" />
<path
   style="clip-rule:evenodd;fill-rule:evenodd"
   id="path3928"
   d="m 95.997,115.7655 c -0.731,-1.714 -1.531,-3.36 -1.833,-5.507 2.561,0.265 6.478,-3.166 7.34,-7.341 -3.103,1.792 -6.373,3.413 -9.177,5.507 -3.334,-0.336 -3.405,-3.935 -6.422,-4.588 -0.373,5.268 4.238,5.548 7.34,7.34 -1.904,1.89 0.004,4.65 2.752,4.59 z" />
<path
   style="clip-rule:evenodd;fill-rule:evenodd"
   id="path3930"
   d="m 100.586,115.7655 c 3.173,-1.109 5.29,-3.274 5.507,-7.341 -3.495,0.79 -4.97,3.59 -5.507,7.34 z" />
<path
   style="clip-rule:evenodd;fill-rule:evenodd"
   id="path3932"
   d="m 123.52,113.0155 c 4.066,0.392 5.81,-1.53 6.422,-4.589 -3.3,0.36 -5.84,1.49 -6.42,4.59 z" />
<path
   style="clip-rule:evenodd;fill-rule:evenodd"
   id="path3934"
   d="m 120.77,112.0955 c -0.623,-4.271 -3.318,-6.47 -7.34,-7.34 0.11,4.78 3.97,5.82 7.34,7.34 z" />
<path
   style="clip-rule:evenodd;fill-rule:evenodd"
   id="path3936"
   d="m 70.307,110.2555 c 1.379,-2.596 4.043,-3.906 4.588,-7.341 -3.722,0.254 -3.972,3.98 -6.423,5.507 -2.761,-1.28 1.908,-4.749 -0.917,-6.425 -1.363,4.823 -5.298,-0.549 -8.259,1.837 0.954,4.86 5.375,6.25 11.011,6.42 z" />
<path
   style="clip-rule:evenodd;fill-rule:evenodd"
   id="path3938"
   d="m 139.12,103.8355 c -0.612,-3.551 -0.003,-3.264 -0.918,-5.503998 -1.927,1.434 -2.916,3.808998 -5.503,4.584998 -5.563,0.415 -4.75,-9.583998 -10.096,-6.421998 1.77,5.709998 8.98,10.419998 16.52,7.339998 z" />
<path
   style="clip-rule:evenodd;fill-rule:evenodd"
   id="path3940"
   d="m 121.69,97.415502 c -3.917,-4.749 -6.739,3.157998 -11.011,3.665998 3.351,5.42 8.831,-1.909998 11.011,-3.669998 z" />
<path
   style="clip-rule:evenodd;fill-rule:evenodd"
   id="path3942"
   d="m 61.131,101.9955 c 3.239,-2.478998 10.488,-5.122998 8.259,-10.091998 -2.442,3.68 -7.631,4.61 -8.259,10.089998 z" />
<path
   style="clip-rule:evenodd;fill-rule:evenodd"
   id="path3944"
   d="m 108.845,101.0855 c -2.009,-2.575998 -3.663,-5.510998 -8.259,-5.502998 -0.512,4.819998 5.216,7.149998 8.259,5.499998 z" />
<path
   style="clip-rule:evenodd;fill-rule:evenodd"
   id="path3946"
   d="m 107.926,90.075502 c 0.011,2.434 -0.347,5.238 0.919,6.421 2.826,-3.42 1.729,-4.278 5.507,-3.67 0.717,-3.778 -1.411,-4.708 -0.919,-8.259 -3.305,0.36 -0.23,7.11 -5.504,5.51 z" />
<path
   style="clip-rule:evenodd;fill-rule:evenodd"
   id="path3948"
   d="m 95.997,93.745502 c -2.695,-3.42 -4.379,-7.852 -7.34,-11.007 -3.696,3.14 2.266,10.71 7.34,11.01 z" />
<path
   style="clip-rule:evenodd;fill-rule:evenodd"
   id="path3950"
   d="m 107.926,83.645502 c -3.211,2.296 -4.634,6.377 -6.422,10.092 4.701,-0.44 8.666,-5.66 6.422,-10.09 z" />
<path
   style="clip-rule:evenodd;fill-rule:evenodd"
   id="path3952"
   d="m 121.69,93.745502 c -0.403,-1.128 -1.176,-1.882 -2.755,-1.833 -0.43,1.95 1.31,1.74 2.75,1.83 z" />
<path
   style="clip-rule:evenodd;fill-rule:evenodd"
   id="path3954"
   d="m 95.083,87.315502 c 1.885,-3.08 1.896,-0.643 4.584,0 -1.583,-4.727 3.461,-10.842 -1.833,-11.01 0.661,2.804 -0.937,3.345 -0.918,5.507 -1.751,-0.393 -1.662,-2.621 -4.588,-1.837 -0.599,3.97 1.586,5.15 2.755,7.34 z" />
<path
   style="clip-rule:evenodd;fill-rule:evenodd"
   id="path3956"
   d="m 127.19,82.735502 c -1.512,-3.076 -2.71,-6.466 -6.422,-7.34 0.94,3.65 2.14,7.04 6.42,7.34 z" />
<path
   style="clip-rule:evenodd;fill-rule:evenodd"
   id="path3958"
   d="m 61.131,81.815502 c 1.621,0.291 1.637,-5.142 -0.918,-3.674 -0.388,1.92 0.629,2.43 0.918,3.67 z" />
<path
   style="clip-rule:evenodd;fill-rule:evenodd"
   id="path3960"
   d="m 118.02,74.475502 c -4.01,-0.029 -7.157,0.796 -10.096,1.834 0.901,5.2 9.986,2.1 10.096,-1.83 z" />
<path
   style="clip-rule:evenodd;fill-rule:evenodd"
   id="path3962"
   d="m 107.008,78.145502 c -2.479,-2.106 -4.059,-5.115 -5.504,-8.255 -2.699,3.65 1.341,8.41 5.504,8.25 z" />
<path
   style="clip-rule:evenodd;fill-rule:evenodd"
   id="path3964"
   d="m 117.1,73.555502 c -0.399,-1.128 -1.176,-1.886 -2.751,-1.837 -0.43,1.96 1.31,1.75 2.75,1.84 z" />
<path
   style="clip-rule:evenodd;fill-rule:evenodd"
   id="path3966"
   d="m 107.008,45.115502 c -0.777,-1.366 -2.954,-1.329 -4.585,-1.837 -0.647,3.18 3.215,3.29 4.585,1.84 z" />
<path
   style="clip-rule:evenodd;fill-rule:evenodd"
   id="path3968"
   d="m 99.667,45.115502 c 1.781,0.362 1.341,-4.182 -0.914,-2.755 v 1.837 c 0.78,-0.17 0.862,0.36 0.914,0.92 z" />
<path
   style="clip-rule:evenodd;fill-rule:evenodd"
   id="path3970"
   d="m 92.327,43.275502 c 2.128,0.291 3.524,-0.149 4.588,-0.918 -0.466,-1.64 -5.857,-3.53 -4.588,0.92 z" />
<path
   style="clip-rule:evenodd;fill-rule:evenodd;stroke-width:0.9997642"
   id="path3972"
   d="m 24.429,116.62075 c 4.54,-0.31285 -0.764,-2.40687 0,-4.58285 5.751,0.67169 4.872,7.96825 6.424,12.83795 3.885,1.42533 10.071,-1.93009 11.927,-5.5014 -3.172,0.72465 -3.872,-1.02152 -5.505,-1.83614 1.464,-3.95513 4.189,-6.79579 8.259,-3.66827 -0.293,2.15298 -1.449,3.44438 -0.917,6.42298 6.784,-1.47432 7.725,-8.78886 11.927,-12.84195 -4.471,-0.18991 -4.172,4.38893 -8.257,4.58683 -2.724,-0.33584 -4.527,-1.59024 -5.507,-3.67226 0.536,-2.85865 6.464,-6.85077 7.342,-3.66427 1.245,-0.28387 0.76,-2.29892 0.917,-3.67227 2.824,-0.67968 1.764,2.51881 4.588,1.83614 -0.409,-2.3439 -1.288,-4.217015 -2.753,-5.501409 -5.072,0.738651 -5.733,5.886219 -10.094,7.337539 -5.753,-1.01553 -8.044,-8.567959 -3.67,-12.841943 1.788,1.575257 1.979,4.750759 1.837,8.251103 2.863,0.17192 2.008,-5.440429 2.751,-8.251103 0.538,-2.037039 3.464,-2.816671 -0.918,-2.749703 0.422,-2.332899 3.967,-1.541273 4.588,-3.672267 3.467,1.003526 -0.409,6.492937 -1.835,8.254106 1.789,4.254993 4.826,-2.074021 5.505,-4.581839 1.695,4.417916 2.479,9.747402 7.34,11.000806 -1.953,-2.144983 -2.755,-7.287557 0,-9.16867 -1.486,-2.795681 -2.143,-6.414974 -6.422,-6.418972 -1.094,-2.727713 3.866,-3.940142 4.587,-1.836133 0.676,-3.131523 0.59,-5.037625 2.753,-8.251108 3.304,-0.245884 4.422,1.694201 7.34,1.832136 -0.508,-2.548799 -3.547,-2.56679 -5.505,-3.66827 0.917,-2.754701 2.751,-4.586836 5.505,-5.500406 1.949,0.290863 -1.311,2.835663 -1.835,3.664272 2.496,3.022574 2.892,-3.772221 5.505,-3.664272 -0.463,4.183027 1.594,5.19355 0,8.251108 3.853,-3.057558 10.26,-1.437322 11.929,2.749703 -0.325,4.537859 -4.941,8.739877 -8.259,7.337539 -1.882,-1.645225 -1.225,-8.508987 0.918,-9.169674 -3.438,-3.078549 -5.01,3.512342 -4.588,7.336538 -2.064,-0.38082 0.138,-5.025629 -2.751,-4.585836 -3.766,1.130466 -4.523,5.261518 -6.424,8.255106 3.724,-2.008053 6.394,4.104063 6.424,0 6.102,2.765695 5.531,12.202244 11.928,14.673079 4.828,-1.59325 9.555,-3.28745 11.011,-8.255107 -3.349,-3.283451 -3.428,4.481885 -7.34,3.672268 -3.763,-1.036511 0.713,-3.933145 0,-7.33654 -3.92,1.321377 -4.592,2.265931 -8.259,0 3.898,-3.746232 9.017,-6.27304 11.929,-11.008806 -3.286,-3.135521 -4.67,-8.173145 -8.258,-11.005808 0.926,-2.436851 1.508,-5.21754 4.588,-5.504404 1.411,0.648694 -3.558,7.149627 1.833,7.336539 1.154,-1.61124 -0.9,-5.500405 1.837,-7.336539 1.244,1.508289 -1.658,3.067553 0,6.42297 3.831,-0.772635 4.331,1.78016 7.34,1.832136 -0.885,3.395398 -5.234,3.32843 -6.422,6.418972 6.896,0.477775 9.618,-3.224479 10.092,-9.169674 -3.341,0.283866 -5.97,-0.145932 -8.259,-0.91357 v -4.590834 c 2.405,0.962546 3.82,2.910627 5.507,4.590834 2.729,-3.575313 8.901,-1.448317 9.173,2.745705 2.273,-3.1795 5.925,-0.02899 9.177,0.918567 0.161,-3.217483 -3.099,-3.015578 -3.67,-5.500406 2.58,-1.090485 2.472,-4.866704 3.67,-7.337538 1.303,0.07896 2.599,0.148929 2.752,-0.917568 15.355,2.686733 29.895,6.194079 36.701,17.42778 11.909,6.161093 23.678,3.224479 29.363,-6.42297 -2.075,-3.608298 0.654,-7.833305 0,-11.00481 -0.926,-4.477887 -3.539,-5.526392 -5.507,-9.172672 -4.409,1.839132 -6.402,-2.395871 -10.092,-2.750703 -9.359,-0.899575 -18.645,6.679849 -27.527,0 -2.188,-3.008581 -3.804,-6.590891 -7.34,-8.255106 C 116.9,41.80404 95.846,33.885775 81.316,28.578279 67.698,23.600627 53.884,14.095111 43.697,6.5646637 40.615,4.2847392 38.494,0.20966146 34.522,0.14669118 31.709,5.4122073 41.731,6.6586194 38.192,12.987633 56.509,20.504087 70.478,30.18752 85.905,38.66552 h 6.422 c -3.614,-3.721244 -9.453,-5.227533 -14.681,-7.340537 8.408,0.775634 18.283,8.016218 28.446,10.09124 2.154,0.290862 2.054,2.835662 3.67,3.668269 4.757,-0.138935 9.121,-0.667685 12.844,-1.832135 3.569,-0.02998 5.156,5.179556 8.258,2.749703 1.609,0.840603 3.189,1.706194 2.756,4.586835 2.968,1.134466 0.698,-2.970598 3.67,-1.836133 1.516,0.978539 -2.345,2.783687 0,5.500405 6.709,1.448317 12.899,-0.25388 18.351,0.918567 0.825,-4.206016 6.59,-5.792268 10.092,-4.582839 -0.858,3.844187 -5.085,-1.000528 -6.422,2.750703 -0.313,3.615295 5.57,0.145931 7.34,0 5.41,0.532749 4.689,12.862932 0.919,14.673079 -3.405,-2.271929 0.791,-7.086658 -3.67,-7.33654 -0.459,-2.884639 1.997,-3.586308 0,-5.504403 -2.572,0.488769 -4.771,1.347365 -7.34,1.836133 -0.62,4.619822 -2.293,4.566846 0,8.255106 -16.98,-2.354888 -32.24,-18.364337 -48.634,-10.091239 -5.753,-4.403923 -8.184,-1.515285 -13.762,-4.582839 2.166,3.952136 -3.058,4.268987 0.918,6.418972 3.05,0.630703 1.479,-1.895106 0.915,-2.7547 3.293,-0.230891 3.364,2.7547 6.426,2.7547 0.258,-1.481301 -0.87,-1.578255 -0.919,-2.7547 1.714,0.734653 3.36,1.537275 5.504,1.836134 -0.419,2.3329 -3.966,1.538274 -4.585,3.668269 -4.018,0.167921 -4.72,-2.980594 -8.259,-0.913569 -2.74,-0.626703 -3.077,-3.653277 -2.752,-7.336538 C 75.578,38.784464 55.482,32.138599 38.192,21.242739 29.61,15.765323 22.157,8.8186004 12.51,5.5901234 13.315,12.732753 23.373,15.639382 29.028,19.345634 c 1.368,0.895577 2.035,2.470834 3.67,3.66827 7.609,5.571371 20.023,10.345119 29.36,14.674077 5.216,2.41786 15.354,7.750344 21.106,11.922377 3.98,2.889636 6.134,4.173031 3.67,10.087241 -12.433,-0.353833 -25.911,-0.8466 -32.116,7.341536 -7.127,-0.40281 -8.767,4.68579 -15.599,4.582838 -5.843,10.362113 -19.984,12.430137 -20.186,28.427587 -7.994,12.91991 -6.304,29.14126 -3.67,46.77494 1.885,0.25788 1.831,2.45184 2.753,3.67026 1.173,1.2724 4.331,0.56174 5.505,1.83414 -0.551,20.05254 -1.281,50.15134 4.586,71.53426 0.579,2.108 2.761,3.77422 3.67,6.41997 1.646,4.79173 1.796,11.06677 3.67,15.59164 1.619,3.90516 4.422,8.73289 6.423,12.83895 0.936,1.92209 2.412,3.52234 3.67,5.5044 1.454,2.28991 1.891,5.2985 2.753,6.41797 8.042,10.43408 19.797,13.19577 30.279,19.25992 5.552,-1.23542 10.222,2.15098 12.847,0.91756 2.92,1.35837 1.012,7.54344 3.67,9.17068 5.477,1.19443 3.207,-5.35347 3.67,-9.17068 9.169,-2.14599 16.778,-5.85124 24.771,-9.17267 3.913,-6.06814 9.346,-11.49058 13.766,-18.34134 7.579,-11.75746 14.408,-29.60204 18.351,-45.85638 1.654,-6.82178 0.646,-15.97146 1.833,-25.67988 1.27,-10.34113 4.069,-25.21611 1.837,-35.76713 9.543,-6.32002 12.601,-26.45852 7.34,-37.60126 1.337,-8.37005 -3.711,-10.35112 -2.751,-18.34535 -3.842,-6.85876 -9.98,-11.422608 -12.848,-19.255913 -11.992,-6.359 -19.238,-17.457765 -36.7,-18.345346 0.101,4.485885 1.9,7.273569 5.503,8.255106 0.434,-2.877643 -2.468,-2.421857 -2.752,-4.582838 2.901,-0.14893 3.065,2.436851 6.422,1.832136 -2.964,6.411975 5.664,7.292559 7.34,11.923375 11.556,-4.515869 11.313,9.867345 14.681,16.510212 -6.257,-2.701725 -9.513,-7.598416 -10.092,-13.759509 -3.715,0.873587 -5.728,3.444375 -8.259,5.504403 -5.398,-0.716662 -5.028,-7.202602 -10.092,-8.255106 0.489,8.0572 8.394,12.606054 16.518,10.09124 5.488,1.848128 5.22,9.452543 13.762,8.251107 0.997,0.227893 0.624,1.825143 1.833,1.832133 1.206,4.56784 -2.822,3.90316 -2.751,7.34053 -3.629,0.55674 -5.32,-3.5863 -8.259,-0.91756 2.099,4.93667 9.924,3.62729 12.847,0.91756 2.479,0.27288 1.646,3.85519 3.67,4.58685 -1.639,1.72419 -2.482,4.24299 -4.588,5.5004 -4.495,-0.39581 -6.06,-3.72424 -9.174,-5.5004 -3.099,2.85864 -5.145,2.94761 -9.177,0.91857 -2.218,2.12699 1.434,2.45083 1.837,4.58183 2.449,-0.60372 5.73,-0.38382 7.34,-1.83614 2.894,3.53034 10.32,2.52681 11.011,8.25512 0.153,1.99305 -3.256,0.4178 -4.589,0.91856 2.042,4.23101 5.742,1.11147 8.259,4.58583 0.934,-5.29549 -4.159,-9.82935 0,-12.84094 5.511,2.03704 1.344,8.30708 6.422,10.09124 -1.177,2.49283 -2.867,4.47089 -3.67,7.33654 1.004,3.57831 3.136,6.03815 4.588,9.17267 -0.022,3.95214 -0.892,7.05367 -3.67,8.25111 -2.856,-1.74818 1.434,-3.98112 0.919,-6.41897 -2.826,-2.37688 -3.939,-6.45895 -5.508,-10.08724 -4.633,-1.79116 -7.672,-5.17156 -11.01,-8.25411 -11.32,0.2089 -20.333,-7.91926 -34.867,-7.33754 -1.374,0.053 -3.211,1.63523 -4.589,1.83214 -10.686,1.52628 -23.174,-1.72019 -32.114,-0.91357 -3.874,0.34683 -10.73,2.85166 -16.515,3.66428 -12.138,1.70919 -28.795,8.59893 -33.949,18.34534 -0.441,3.49235 4.247,1.86512 2.751,6.41897 -5.996,1.97007 -5.316,-8.63193 -4.588,-11.92338 0.136,-2.00405 2.313,-1.96707 4.588,-1.83313 1.219,-3.67227 1.314,-8.471 3.67,-11.00881 -1.226,-3.66427 -4.368,-5.41445 -5.505,-9.16867 -0.168,-0.77963 0.358,-0.86559 0.918,-0.91857 1.077,0.12994 0.775,1.64922 0.919,2.72871 z m 124.79,107.30937 c -0.94,6.39399 -2.587,12.08531 -5.503,16.50921 -1.061,-2.97958 2.804,-5.64233 0,-7.33653 -1.702,1.96707 -2.453,4.88469 -2.752,8.2551 1.441,0.086 3.182,-0.12294 2.752,1.83214 -1.9,2.07302 -4.738,-1.27839 -5.507,2.7517 -0.725,3.1725 1.022,3.87218 1.837,5.5024 -8.711,15.13987 -17.361,30.33969 -36.705,34.85157 0.485,-2.3439 1.218,-3.20949 -0.914,-4.58685 -4.891,0.30986 -5.959,4.44091 -10.096,5.50441 0.317,-3.37341 -3.342,-2.77469 -5.503,-3.67026 -0.668,2.50181 1.822,1.84712 1.833,3.67026 -3.588,-0.081 -8.05,0.70866 -7.34,-3.67026 0.101,-3.24847 3.035,1.95008 2.751,-0.91657 -2.165,-1.19544 -0.899,-5.82326 -4.585,-5.5024 2.774,7.67237 -5.833,2.27392 -8.258,3.66826 0.009,1.21143 1.607,0.8376 1.835,1.83414 -4.586,-0.30786 -7.064,-2.72472 -8.258,-6.41998 3.444,-0.90856 1.999,4.50588 4.588,1.83414 -3.017,-3.09954 -5.417,-6.81379 -8.259,-10.08724 -0.831,3.19049 6.164,6.55891 1.835,7.33653 -3.519,0.16593 -0.332,-0.75164 -0.918,-2.7527 -2.99,2.25594 -7.23,-3.42937 -6.421,-4.58383 0.528,3.49335 2.146,-3.57131 0,-2.7517 -1.213,0.011 -0.84,1.60623 -1.835,1.83413 -4.002,-4.25399 -4.758,-11.75346 -11.012,-13.75751 2.091,-5.74829 -2.879,-10.88587 -4.587,-12.83895 0.056,-8.82783 -8.312,-28.50155 -7.34,-41.27052 0.704,0.4028 5.966,-0.056 4.586,-1.83614 1.311,1.69221 -1.721,2.68174 0.918,4.58684 0.05,-4.23001 -0.407,-8.96577 0.917,-11.92338 3.612,-1.4683 0.319,3.96114 2.753,3.66827 -0.571,-3.4034 1.492,-9.43755 -1.835,-10.08724 -0.528,1.61224 1.109,5.38945 -0.918,5.5024 0.05,-1.57825 -0.706,-2.35089 -1.835,-2.7517 -0.838,1.60824 -0.315,4.57685 -1.835,5.5024 -0.22,-2.36388 -1.578,1.25942 -3.67,0 -0.495,-2.88664 5.947,-8.462 0.918,-7.33653 3.396,-4.21101 1.502,-15.94448 0.917,-19.25992 -1.889,0.25189 -0.863,3.41639 -2.751,3.66827 -0.952,-4.61982 0.937,-6.39998 3.67,-7.33653 0.377,-4.35095 0.009,-7.95725 -1.835,-10.08925 2.578,-1.08948 2.472,-4.8657 3.67,-7.33654 -3.733,0.18992 -2.097,-4.95166 -0.918,-7.33654 2.332,3.14852 2.121,-3.92215 4.588,-3.66827 0.442,5.54538 -3.416,14.81802 0.917,18.34135 2.647,-3.52633 -0.818,-8.55996 3.67,-11.0048 -0.247,13.09681 -2.647,27.528 1.837,38.51982 -0.015,1.51528 -2.546,0.51276 -2.754,1.83414 3.231,0.6287 -3.285,9.43755 1.835,13.75751 0.545,-1.89911 -1.135,-6.02516 0.918,-6.41997 0.13,40.83374 8.525,73.40736 32.114,90.79616 -10.896,-12.83694 -21.7,-28.06476 -26.609,-48.60806 -3.097,-12.95489 -3.991,-28.57053 -4.588,-43.10467 -0.564,-13.73853 -2.808,-30.13379 -1.835,-43.10567 0.177,-2.35389 3.218,-4.42991 0,-6.41897 0.155,3.13552 -3.228,-0.2089 -4.588,2.7507 0.772,-2.28392 1.202,-4.91168 0.918,-8.2551 8.731,-7.4305 25.417,-5.55338 36.703,-7.33654 8.032,-1.2694 18.05,0.92157 27.525,0.91757 16.432,-0.007 27.718,-1.16445 37.619,6.41897 1.814,11.67349 0.731,24.90225 0,36.68569 -0.504,8.15016 -2.079,16.41826 0.919,22.01162 2.18,-16.91203 0.242,-42.37101 0.918,-57.77875 5.716,0.39882 5.429,6.7988 8.259,10.09024 1.071,-2.40286 -2.834,-3.94813 0.915,-3.67227 0.238,5.59036 4.349,12.14128 1.836,17.42778 -1.825,-3.06555 0.62,-10.40508 -3.67,-11.0088 2.218,23.67483 2.117,58.22953 -6.422,78.87479 2.764,-19.86063 6.418,-43.71737 3.671,-66.03185 -0.438,17.29284 -0.258,35.2034 -4.589,48.60607 0.799,-3.1815 -1.411,-3.14551 -2.752,-1.83413 7.722,4.71178 -0.724,15.85252 0,24.76232 2.805,-0.66469 2.696,1.58225 5.504,0.91756 0.91,-1.88111 1.63,-8.6729 2.74,-7.33454 z m -103.69,31.18229 c -0.877,1.70919 2.748,3.06556 0,3.66827 -0.269,-0.56173 -2.283,-3.53033 0,-3.66827 z m 106.44,-42.18709 c -1.58,8.37104 -2.7,-0.6457 0,0 z m 1.83,-18.33936 c -0.5,1.33238 1.071,4.73977 -0.918,4.58585 -1.45,-1.37935 -0.67,-3.75824 0.92,-4.58784 z m 1.84,-16.51221 c -1.561,3.31044 0.295,9.20266 -1.837,13.75752 -0.43,-4.49788 -1.82,-11.15474 1.84,-13.75351 z m 0,-18.34134 c -0.497,4.72277 1.063,16.3233 -0.919,16.51021 0.5,-4.72777 -1.06,-16.3223 0.92,-16.51221 z m 8.26,-28.43659 c 0.75,0.66868 2.46,6.35201 -0.919,5.5054 -0.4,-2.03903 -2.11,-4.97765 0.92,-5.50739 z m -148.65,-1.82914 c 2.876,-0.42879 2.585,2.30692 3.67,3.66927 h -2.754 c 0.207,-1.72918 -1.034,-2.01905 -0.916,-3.66826 z m 8.258,-9.16567 c 2.993,2.09701 0.739,7.4145 -0.918,10.08724 -3.418,-2.5288 -1.165,-7.8463 0.918,-10.08524 z m 141.3,-0.91957 c 0.52,1.98906 2.192,7.50946 0,9.16968 -2.29,-2.94861 -5.57,-7.68638 0,-9.16568 z m -143.13,-2.7587 c 0.044,2.79868 -0.834,4.6718 -2.753,5.50441 0.018,-2.73871 -0.086,-5.58736 2.753,-5.50741 z m 17.432,-11.91438 c -0.127,6.29203 -2.879,9.96031 -4.587,14.67308 -2.494,-5.5174 -0.491,-13.75351 4.587,-14.67308 z m 118.36,1.82914 c 4.499,-0.2129 4.809,3.75823 5.507,7.33654 -1.825,0.0119 -1.168,2.50482 -3.67,1.83214 -2.71,-2.11901 -2.72,-5.53739 -1.84,-9.16568 z m -131.21,0 c 0.03,0.0149 2.207,4.243 0,2.7507 -1.751,-1.17944 -0.872,-3.21848 0,-2.7487 z m 7.34,-4.58783 c 1.619,3.3814 -1.426,6.12411 -3.67,8.2551 0.804,-3.1685 1.596,-6.34701 3.67,-8.2561 z m -13.764,1.83913 c 5.386,-1.34337 1.607,-11.844413 9.177,-11.008807 0.847,5.127581 -3.764,4.798736 -2.754,10.091237 -5.307,0.10795 -1.301,4.07508 -4.586,5.5004 0.683,-2.82866 -2.52,-1.76916 -1.837,-4.58783 z m 130.29,-8.256106 c 5.354,0.881584 6.388,7.687376 4.588,11.005806 -1.83,-3.02858 -6.62,-7.056667 -4.59,-11.004806 z m -118.36,0 c 1.413,1.395342 1.635,6.289036 -1.835,5.501396 -0.19,-2.628751 0.233,-4.657794 1.835,-5.497397 z m 118.36,-5.497406 c 4.278,-1.156455 7.444,7.329542 4.588,7.336539 -0.93,-3.048562 -5.08,-2.878642 -4.59,-7.336539 z m -73.4,6.416973 c -3.817,-5.147572 1.521,-2.618765 0,0 z m 67.9,-7.33654 c 2.946,-0.193908 2.233,3.269458 3.671,4.581839 -2.95,0.199906 -2.23,-3.268459 -3.67,-4.57784 z M 32.685,88.196156 c 0.287,1.238415 1.305,1.750173 0.917,3.668269 -1.24,0.287864 -1.753,1.303385 -3.67,0.914569 -0.182,-2.618765 -0.115,-4.997643 2.753,-4.577841 z M 41.859,76.27178 c -0.354,4.488883 -2.507,5.766281 -0.916,10.087242 -2.166,0.283866 -1.708,3.186497 -4.589,2.7547 -1.419,-4.158038 3.437,-9.195662 5.505,-12.84394 z m 102.77,6.416973 c 1.222,1.832136 5.996,0.122943 4.585,4.586836 -3.58,1.069496 -7.18,-2.528807 -4.59,-4.587835 z M 35.439,80.859616 c 1.619,1.724187 -1.144,4.246997 -2.751,5.500406 -0.494,-3.238473 0.778,-4.717775 2.751,-5.497408 z m 11.012,3.66827 c -3.709,3.228476 -2.165,-2.948609 0,0 z m -0.918,-5.507402 c -0.386,1.754172 -0.333,3.948137 -2.753,3.668269 -0.257,-2.388873 -0.309,-4.587836 2.753,-3.668269 z m 5.505,-6.416973 c -2.981,0.687676 -0.206,7.131635 -4.587,6.418972 -0.207,-0.709666 -0.026,-1.807148 -0.918,-1.836134 -0.095,-2.888637 4.766,-5.557378 5.505,-4.577841 z m 75.242,-0.919567 c 3.531,-2.142988 9.785,-0.33684 9.177,4.585838 -3.64,1.529278 -7.61,-1.349364 -9.18,-4.587837 z m -72.489,0.919567 c 1.445,1.361357 1.021,4.098067 -1.835,3.668269 -0.257,-2.089015 0.221,-3.448373 1.835,-3.668269 z m 118.36,-21.090052 c 11.45,2.439849 4.977,26.704403 -5.504,22.927185 5.79,-3.228477 9.89,-15.342762 5.5,-22.929184 z m -7.34,14.673079 c -0.019,2.156982 1.584,2.697727 0.919,5.501405 -2.718,0.645695 -3.995,2.730712 -8.259,1.835134 2.55,-2.348892 5.01,-4.787742 7.34,-7.336539 z M 77.647,65.266972 c -2.994,-0.242886 -1.945,3.56032 -4.586,3.668269 -3.037,-2.528807 3.023,-8.495992 4.586,-3.668269 z m 85.334,-1.839133 c -1.628,0.820614 -1.168,3.724244 -4.588,2.753701 -0.45,-2.368883 3.25,-5.197548 4.59,-2.758698 z m -61.476,-0.909571 h 5.504 c 0.615,5.507402 -3.899,0.489769 -5.504,0 z m -3.67,-1.839132 c 1.415,2.769694 -4.749,2.414861 -4.588,0.918567 2.21,0.37982 1.993,-1.669213 4.588,-0.919567 z m 60.556,-0.909571 c 3.7,-4.627817 4.3,3.198492 0,0 z m -11.01,-8.256106 c 2.091,-0.257878 3.45,0.215899 3.67,1.832136 -1.71,-0.119943 -3.06,-0.599717 -3.67,-1.829137 z m -19.27,-10.095237 c 1.911,0.298859 7.501,1.574257 4.589,3.66827 0.03,-2.77869 -4.62,-0.879585 -4.59,-3.66827 z" />
<path
   style="clip-rule:evenodd;fill-rule:evenodd"
   id="path3974"
   d="m 61.131,268.0795 c -5.219,-7.319 -9.382,-15.698 -12.845,-24.774 1.344,7.533 5.992,19.693 12.845,24.774 z" />
<path
   style="clip-rule:evenodd;fill-rule:evenodd"
   id="path3976"
   d="m 38.192,210.2725 c -2.035,-0.504 -1.307,1.753 -2.753,1.835 -0.286,-3.586 5.214,-4.42 1.835,-8.256 -2.837,0.792 -2.733,3.112 -2.751,-1.837 -1.751,3.618 0.222,11.378 0.917,15.599 1.129,-0.399 1.885,-1.174 1.835,-2.751 1.876,10.052 6.935,16.922 9.177,26.609 -0.766,-2.203 -0.747,-9.188 -2.753,-16.517 -0.838,-3.057 -6.5,-9.044 -5.507,-14.682 z" />
<path
   style="clip-rule:evenodd;fill-rule:evenodd"
   id="path3978"
   d="m 42.779,216.6965 c 0.188,-7.223 -2.563,-11.505 -1.833,-19.269 -1.816,-4.351 -1.652,7.157 -0.919,12.845 0.392,3.043 0.572,6.937 2.752,6.426 z" />
<path
   style="clip-rule:evenodd;fill-rule:evenodd"
   id="path3980"
   d="m 145.54,124.0155 c 1.73,2.06 -4.6,-5.46 0,0 z" />
<metadata
   id="metadata3982"><rdf:RDF><cc:Work><dc:format>image/svg+xml</dc:format><dc:type
         rdf:resource="http://purl.org/dc/dcmitype/StillImage" /><cc:license
         rdf:resource="http://creativecommons.org/publicdomain/zero/1.0/" /><dc:publisher><cc:Agent
           rdf:about="http://openclipart.org/"><dc:title>Openclipart</dc:title></cc:Agent></dc:publisher><dc:title></dc:title><dc:date>2006-12-26T00:00:00</dc:date><dc:description /><dc:source>https://openclipart.org/detail/20784/-by--20784</dc:source><dc:creator><cc:Agent><dc:title>johnny_automatic</dc:title></cc:Agent></dc:creator></cc:Work><cc:License
       rdf:about="http://creativecommons.org/publicdomain/zero/1.0/"><cc:permits
         rdf:resource="http://creativecommons.org/ns#Reproduction" /><cc:permits
         rdf:resource="http://creativecommons.org/ns#Distribution" /><cc:permits
         rdf:resource="http://creativecommons.org/ns#DerivativeWorks" /></cc:License></rdf:RDF></metadata></svg>